<svg width="436" height="436" viewBox="0 0 436 436" fill="none" xmlns="http://www.w3.org/2000/svg">
<g clip-path="url(#clip0_528_661)">
<rect width="436" height="436" rx="218" fill="#121426"/>
<path d="M181.461 351.48L181.495 351.664C182.544 351.018 181.484 351.603 181.495 351.664C188.443 347.025 196.127 343.366 203.444 339.707C199.42 314.461 193.565 289.946 189.175 263.967C186.613 247.136 184.052 231.037 183.686 214.206C183.686 212.01 183.32 209.449 184.002 207.27C183.892 207.593 183.827 207.93 183.811 208.271C186.062 203.048 182.441 198.407 178.951 194.829C171.761 187.541 166.154 178.848 162.478 169.294C160.629 164.424 159.29 159.375 158.482 154.228C158.045 151.453 157.842 148.679 157.12 145.952C156.4 143.233 155.411 140.597 154.584 137.91" stroke="#FDCC05" stroke-width="0.365894" stroke-miterlimit="10"/>
<path d="M268.875 125.382L270.922 122.63C271.672 121.622 272.442 120.594 273.481 119.888C274.521 119.182 275.899 118.846 277.052 119.344C277.529 119.581 277.95 119.916 278.288 120.327C278.626 120.738 278.873 121.217 279.012 121.73C279.284 122.759 279.394 123.824 279.337 124.886C279.291 130.104 278.732 135.305 277.668 140.413" stroke="#FDCC05" stroke-width="0.365894" stroke-miterlimit="10"/>
<path d="M269.416 134.755C269.376 132.703 270.043 130.699 271.303 129.08C272.321 127.782 273.583 126.819 274.733 125.758C275.227 125.312 275.688 124.83 276.112 124.316C276.552 123.779 276.921 123.186 277.209 122.553" stroke="#FDCC05" stroke-width="0.365894" stroke-miterlimit="10"/>
<path d="M275.691 124.837L277.25 129.709C277.408 136.492 277.209 135.545 277.209 135.545" stroke="#FDCC05" stroke-width="0.365894" stroke-miterlimit="10"/>
<path d="M268.721 146.267C269.005 145.625 269.38 145.028 269.833 144.492C270.061 144.225 270.344 144.009 270.661 143.859C270.979 143.709 271.324 143.627 271.676 143.62C272.172 143.637 272.643 143.852 273.137 143.901C273.632 143.949 274.225 143.745 274.345 143.263" stroke="#FDCC05" stroke-width="0.365894" stroke-miterlimit="10"/>
<path d="M277.858 139.962L276.507 145.172C276.346 145.749 276.217 146.335 276.121 146.927C275.908 148.42 276.1 150.027 275.39 151.357" stroke="#FDCC05" stroke-width="0.365894" stroke-miterlimit="10"/>
<path d="M266.839 159.997C266.697 169.216 264.575 178.296 260.618 186.624C260.964 191.156 260.956 195.708 260.594 200.238C260.4 202.957 260.075 205.695 260.425 208.398L260.26 207.796" stroke="#FDCC05" stroke-width="0.365894" stroke-miterlimit="10"/>
<path d="M246.909 117.457L247.805 117.191C246.722 116.572 245.39 116.665 244.147 116.775L234.733 117.613C233.317 117.739 231.899 117.866 230.498 118.109C228.959 118.377 227.378 118.821 226.23 119.882C225.507 120.55 225.006 121.418 224.385 122.182C223.765 122.945 220.985 123.735 221.969 123.74L227.453 123.767C228.61 123.556 233.804 122.399 234.783 122.084C235.761 121.768 246.909 117.457 246.909 117.457Z" stroke="#FDCC05" stroke-width="0.365894" stroke-miterlimit="10"/>
<path d="M168.139 130.708C168.454 130.603 172.977 126.922 174.028 126.291C175.08 125.66 182.231 124.713 184.335 124.818C186.438 124.924 188.962 127.334 191.171 127.759C193.379 128.184 186.438 129.13 186.017 129.235C185.597 129.341 174.239 131.023 173.713 130.708C173.187 130.392 168.139 130.708 168.139 130.708Z" stroke="#FDCC05" stroke-width="0.365894" stroke-miterlimit="10"/>
<path d="M191.68 146.702C191.256 147.598 190.925 148.535 190.693 149.498C190.462 150.468 190.536 151.487 190.905 152.413C191.393 153.518 192.399 154.304 193.43 154.933C193.627 155.053 193.85 155.205 193.867 155.436" stroke="#FDCC05" stroke-width="0.365894" stroke-miterlimit="10"/>
<path d="M226.501 143.249C226.725 143.331 226.912 143.491 227.027 143.701C227.688 144.704 228.047 145.875 228.061 147.075C228.075 148.275 227.743 149.455 227.107 150.472C227.182 150.305 227.302 150.162 227.453 150.059" stroke="#FDCC05" stroke-width="0.365894" stroke-miterlimit="10"/>
<path d="M194.979 153.865C196.941 153.647 199.005 153.444 200.821 154.218C202.089 154.759 203.115 155.729 204.242 156.524C205.652 157.577 207.323 158.225 209.074 158.398C209.948 158.477 210.828 158.363 211.653 158.064C212.478 157.765 213.227 157.288 213.847 156.668C214.497 155.968 214.931 155.097 215.521 154.347C217.55 151.766 221.055 150.97 224.277 150.342" stroke="#FDCC05" stroke-width="0.365894" stroke-miterlimit="10"/>
<path d="M239.072 156.066C240.756 156.92 241.811 158.697 242.278 160.527C242.746 162.356 242.711 164.27 242.754 166.157C242.831 169.535 243.165 172.903 243.752 176.23" stroke="#FDCC05" stroke-width="0.146358" stroke-miterlimit="10"/>
<path d="M187.567 176.883C188.331 176.459 188.58 175.493 189.123 174.808C189.495 174.381 189.936 174.02 190.427 173.74C194.686 171.065 199.622 169.664 204.652 169.705C206.219 169.72 207.786 169.877 209.353 169.828C213.903 169.686 218.24 167.825 222.774 167.421C226.945 167.049 231.135 167.921 235.32 167.779C236.364 167.69 237.415 167.699 238.457 167.808C238.979 167.865 239.484 168.027 239.942 168.283C240.4 168.539 240.803 168.884 241.125 169.299C241.162 169.339 241.189 169.389 241.201 169.443C241.213 169.496 241.211 169.553 241.194 169.605C241.142 169.702 240.941 169.653 240.984 169.551" stroke="#FDCC05" stroke-width="0.365894" stroke-miterlimit="10"/>
<path d="M185.441 173.641C186.485 172.841 186.967 171.521 187.766 170.475C188.916 168.969 190.678 168.082 192.378 167.244C196.426 165.251 200.746 163.205 205.236 163.652C206.503 163.778 207.752 164.103 209.026 164.103C210.879 164.102 212.651 163.416 214.432 162.904C218.646 161.692 223.084 161.431 227.466 161.596C229.766 161.682 232.101 161.893 234.24 162.743C235.528 163.299 236.765 163.968 237.936 164.742C239.438 165.673 241.005 166.67 241.858 168.218" stroke="#FDCC05" stroke-width="0.219536" stroke-miterlimit="10"/>
<path d="M184.13 200.187C188.551 206.832 194.394 212.386 200.185 217.879C201.415 219.113 202.746 220.241 204.165 221.252C206.518 222.828 209.248 223.726 211.94 224.605" stroke="#FDCC05" stroke-width="0.365894" stroke-miterlimit="10"/>
<path d="M211.95 224.502C215.176 224.555 218.4 224.314 221.582 223.784C222.735 223.592 223.882 223.361 225.014 223.069C228.037 222.287 230.927 221.066 233.804 219.851C234.517 219.577 235.201 219.232 235.845 218.821C236.554 218.335 237.143 217.694 237.826 217.171C237.9 217.114 237.999 217.056 238.083 217.098C238.167 217.141 238.179 217.291 238.102 217.237L242.521 212.904C243.83 211.67 245.066 210.361 246.224 208.985C247.115 207.883 247.903 206.704 248.691 205.526L252.97 199.124C254.111 197.418 255.253 195.709 256.219 193.899C257.45 191.593 258.44 189.062 260.369 187.297" stroke="#FDCC05" stroke-width="0.365894" stroke-miterlimit="10"/>
<path d="M188.901 178.282C190.347 180.109 192.116 181.649 193.875 183.177L196.451 185.417C198.057 186.812 199.704 188.233 201.68 189.021L201.293 189.18C207.544 190.366 214.253 190.393 220.436 188.893C222.135 188.48 223.808 187.969 225.48 187.458C226.334 187.241 227.153 186.902 227.911 186.452C228.528 186.043 229.04 185.49 229.66 185.085C230.589 184.477 231.715 184.232 232.663 183.654C233.328 183.216 233.931 182.689 234.453 182.088C237.316 179.021 239.674 175.518 241.44 171.712C241.657 171.243 241.864 170.688 241.624 170.231" stroke="#FDCC05" stroke-width="0.219536" stroke-miterlimit="10"/>
<path d="M188.422 183.056C190.558 185.465 192.367 188.145 194.45 190.601C196.532 193.057 198.951 195.328 201.908 196.601C205.664 198.219 209.915 198.084 213.997 197.825C218.492 197.54 223.005 197.133 227.364 196C229.269 195.505 231.172 194.856 232.764 193.698C233.915 192.807 234.939 191.762 235.807 190.594C236.86 189.327 237.735 187.922 238.406 186.418C238.878 185.179 239.24 183.902 239.489 182.6L241.303 174.405" stroke="#FDCC05" stroke-width="0.365894" stroke-miterlimit="10"/>
<path d="M183.833 162.344L181.207 166.746C180.891 167.223 180.643 167.743 180.472 168.29C180.269 169.258 180.41 170.267 180.871 171.143C181.331 172.009 181.861 172.836 182.455 173.616C183.206 174.698 183.879 175.832 184.471 177.009C184.631 177.327 184.769 177.755 184.513 178.003" stroke="#FDCC05" stroke-width="0.146358" stroke-miterlimit="10"/>
<path d="M232.855 146.83L240.854 153.061C242.337 154.217 243.852 155.407 244.846 157.004C245.953 158.783 246.317 160.909 246.66 162.975" stroke="#FDCC05" stroke-width="0.146358" stroke-miterlimit="10"/>
<path d="M223.281 107.942C224.983 107.24 226.686 106.538 228.421 105.923C230.435 105.208 232.488 104.612 234.572 104.138C235.637 103.873 236.724 103.702 237.82 103.627C240.231 103.507 242.611 104.152 244.916 104.87C246.101 105.194 247.241 105.663 248.311 106.266C250.146 107.391 251.442 109.195 252.687 110.951C251.359 108.261 249.751 105.721 247.888 103.371C247.253 102.517 246.509 101.751 245.675 101.091C244.693 100.365 243.545 99.9076 242.462 99.3434C241.472 98.8275 240.52 98.2138 239.451 97.8911C238.565 97.6511 237.648 97.5415 236.73 97.5658C231.989 97.5576 227.384 99.0197 222.873 100.478C220.372 101.286 217.824 102.122 215.709 103.682C215.48 103.828 215.289 104.027 215.152 104.262C214.915 104.743 215.133 105.312 215.335 105.808C215.846 107.066 216.009 110.239 217.618 110.205C219.327 110.169 221.703 108.593 223.281 107.942Z" stroke="#FDCC05" stroke-width="0.365894" stroke-miterlimit="10"/>
<path d="M163.734 118.209C164.862 116.754 166.689 116.049 168.456 115.532C177.048 113.018 186.191 113.43 195.127 113.97C195.854 114.014 196.848 113.835 196.873 113.107C196.847 112.794 196.714 112.499 196.498 112.271C194.333 109.425 191.899 106.466 188.476 105.428C186.482 104.823 184.344 104.941 182.276 105.197C178.109 105.714 174.027 106.766 170.129 108.327C168.915 108.756 167.78 109.382 166.768 110.179C165.654 111.136 164.886 112.432 164.241 113.751C163.108 116.067 162.027 118.768 161.777 121.353C162.683 121.098 163.146 118.968 163.734 118.209Z" stroke="#FDCC05" stroke-width="0.365894" stroke-miterlimit="10"/>
<path d="M157.544 145.767C159.903 133.709 157.708 121.635 158.074 109.56C158.44 105.535 158.44 101.511 158.805 97.4857C158.805 96.388 159.537 95.2904 159.537 94.1927C159.903 86.8748 162.099 80.2887 165.026 73.7026L166.123 72.6049C167.953 68.946 170.88 66.3847 174.539 64.1894L175.637 63.0917C188.809 55.042 203.445 52.1148 218.446 55.7738C232.35 59.0668 246.62 66.0188 251.377 80.2887C253.206 86.8748 254.304 93.095 257.597 99.3152C258.329 101.145 259.06 103.34 259.06 105.535C258.695 115.049 262.719 123.464 265.281 132.612C266.744 138.832 266.012 145.052 267.419 150.806C267.41 150.483 267.354 150.162 267.254 149.855C267.291 150.175 267.346 150.492 267.419 150.806C267.508 150.206 268.241 146.086 267.389 146.004C266.46 145.915 267.314 150.242 267.419 150.806C267.964 147.354 268.225 143.863 268.199 140.368C268.208 135.173 267.842 130.05 267.842 124.928C267.842 124.196 268.574 123.83 269.671 123.098C273.33 121.269 272.964 116.146 272.897 111.986" stroke="#FDCC05" stroke-width="0.365894" stroke-miterlimit="10"/>
<path d="M290.227 235.896C290.527 233.964 289.064 232.866 287.966 232.135C278.819 226.28 272.233 219.328 267.476 210.181C266.012 207.62 263.085 205.79 260.17 206.557C260.36 206.552 260.55 206.534 260.737 206.504C260.547 206.493 260.356 206.511 260.17 206.557C260.397 206.826 261.469 208.272 261.876 208.003C262.527 207.572 260.465 206.629 260.17 206.557C263.567 209.089 264.757 213.565 265.671 217.487C272.233 242.38 262.353 266.529 254.67 290.312C251.742 299.459 250.279 308.606 249.547 318.12C249.547 319.217 249.181 319.949 248.815 321.047C246.62 325.438 243.693 329.097 241.132 333.487C240.766 334.585 239.302 336.049 240.4 337.146C245.888 342.269 253.206 343.732 259.426 347.757C260.884 348.893 262.405 349.945 263.982 350.907" stroke="#FDCC05" stroke-width="0.365894" stroke-miterlimit="10"/>
<path d="M203.444 339.708L217.462 398.989L221.761 438.557L203.444 438.058L186.14 436.177L154.584 366.177L173.292 353.872L181.495 351.664L174.87 353.872L154.584 350.908V342.988L159.325 232.51C160.267 230.084 163.194 228.339 165.099 226.719C168.92 223.469 173.189 220.396 176.493 216.601C179.12 213.583 180.248 208.881 183.84 206.789" stroke="#FDCC05" stroke-width="0.365894" stroke-miterlimit="10"/>
<path d="M45 349.16C47.1475 336.462 49.2652 323.707 52.7579 311.295C56.1399 299.276 60.8163 287.668 65.8934 276.276C68.3203 270.831 70.6008 265.148 73.8628 260.135C76.9637 255.37 81.2678 251.794 86.1749 248.994C96.364 243.18 107.937 239.603 119.308 236.951C131.011 234.222 142.931 232.572 154.842 231.052C156.31 230.864 157.778 230.679 159.246 230.494" stroke="#FDCC05" stroke-width="0.365894" stroke-miterlimit="10"/>
<path d="M199.528 316.057C205.004 318.774 210.839 320.699 216.857 321.774C220.027 322.34 223.236 322.667 226.443 322.953C233.532 323.587 241.292 323.852 247.061 319.683C247.214 319.719 247.356 319.792 247.474 319.896C247.592 320 247.682 320.133 247.735 320.28C247.789 320.428 247.805 320.587 247.781 320.743C247.757 320.898 247.695 321.046 247.6 321.171" stroke="#FDCC05" stroke-width="0.365894" stroke-miterlimit="10"/>
<path d="M266.064 159.346C266.691 159.782 267.464 159.954 268.217 159.828C268.97 159.702 269.643 159.286 270.094 158.67" stroke="#FDCC05" stroke-width="0.365894" stroke-miterlimit="10"/>
<path d="M277.204 155C277.376 154.463 277.404 153.89 277.287 153.338C277.169 152.786 276.909 152.274 276.534 151.853C273.517 148.201 267.491 152.443 269.713 156.53C271.582 159.967 276.29 157.929 277.204 155Z" stroke="#FDCC05" stroke-width="0.365894" stroke-miterlimit="10"/>
<path d="M161.505 167.047C160.56 166.915 159.671 167.72 159.442 168.646C159.213 169.572 159.507 170.552 159.946 171.399C160.349 172.238 160.971 172.953 161.747 173.468C162.136 173.721 162.579 173.88 163.04 173.933C163.502 173.985 163.969 173.93 164.405 173.77C164.379 173.847 164.329 173.914 164.264 173.961C164.198 174.008 164.119 174.034 164.038 174.035" stroke="#FDCC05" stroke-width="0.365894" stroke-miterlimit="10"/>
<path d="M229.303 119.006C228.543 119.343 228.145 120.23 228.151 121.061C228.208 121.893 228.445 122.704 228.844 123.436C228.889 123.532 228.969 123.645 229.071 123.619C229.174 123.593 229.054 123.393 229.018 123.493" stroke="#FDCC05" stroke-width="0.365894" stroke-miterlimit="10"/>
<path d="M238.428 118.056C238.73 118.292 238.964 118.605 239.105 118.962C239.246 119.318 239.289 119.706 239.23 120.085" stroke="#FDCC05" stroke-width="0.365894" stroke-miterlimit="10"/>
<path d="M186.264 126.061C186.515 126.537 186.637 127.071 186.616 127.609C186.595 128.148 186.432 128.671 186.144 129.126" stroke="#FDCC05" stroke-width="0.365894" stroke-miterlimit="10"/>
<path d="M176.158 126.4C176.042 127.086 176.062 127.787 176.219 128.465C176.375 129.142 176.663 129.782 177.068 130.347" stroke="#FDCC05" stroke-width="0.365894" stroke-miterlimit="10"/>
<path d="M232.749 117.728C231.967 116.331 231.589 114.744 231.66 113.145" stroke="#FDCC05" stroke-width="0.365894" stroke-miterlimit="10"/>
<path d="M236.237 117.511C236.699 117.611 237.063 117.125 237.255 116.693C237.842 115.365 238.084 113.91 237.959 112.464" stroke="#FDCC05" stroke-width="0.365894" stroke-miterlimit="10"/>
<path d="M238.354 117.294C240.058 116.097 241.375 114.427 242.143 112.491" stroke="#FDCC05" stroke-width="0.365894" stroke-miterlimit="10"/>
<path d="M248.37 112.824C247.938 113.84 247.298 114.754 246.492 115.509C245.686 116.263 244.731 116.84 243.688 117.204" stroke="#FDCC05" stroke-width="0.365894" stroke-miterlimit="10"/>
<path d="M252.299 115.188C251.156 116.206 249.749 116.88 248.239 117.133C247.837 117.199 247.28 117.123 247.236 116.718" stroke="#FDCC05" stroke-width="0.365894" stroke-miterlimit="10"/>
<path d="M225.823 120.242C224.844 119.953 223.932 119.471 223.141 118.824" stroke="#FDCC05" stroke-width="0.365894" stroke-miterlimit="10"/>
<path d="M187.384 125.814C187.782 126.213 188.459 125.875 188.872 125.492C189.885 124.551 190.661 123.384 191.135 122.085" stroke="#FDCC05" stroke-width="0.365894" stroke-miterlimit="10"/>
<path d="M185.933 125.311C187.185 124.13 188.101 122.639 188.59 120.989" stroke="#FDCC05" stroke-width="0.365894" stroke-miterlimit="10"/>
<path d="M179.594 125.299C178.641 124.324 177.945 123.127 177.571 121.816" stroke="#FDCC05" stroke-width="0.365894" stroke-miterlimit="10"/>
<path d="M177.545 125.336C175.245 124.614 173.153 123.202 172.291 120.86" stroke="#FDCC05" stroke-width="0.365894" stroke-miterlimit="10"/>
<path d="M170.346 123.098C171.381 124.589 172.921 125.655 174.681 126.099" stroke="#FDCC05" stroke-width="0.365894" stroke-miterlimit="10"/>
<path d="M168.385 122.888C168.154 123.145 168.311 123.552 168.5 123.842C169.035 124.651 169.739 125.333 170.565 125.842C171.391 126.35 172.317 126.673 173.28 126.786" stroke="#FDCC05" stroke-width="0.365894" stroke-miterlimit="10"/>
<path d="M164.317 125.704C165.732 128.017 168.66 128.804 171.222 127.917C170.189 127.78 169.193 127.437 168.294 126.91C167.394 126.383 166.61 125.681 165.985 124.846" stroke="#FDCC05" stroke-width="0.365894" stroke-miterlimit="10"/>
<path d="M163.771 127.72C165.698 128.739 167.848 129.263 170.027 129.245" stroke="#FDCC05" stroke-width="0.365894" stroke-miterlimit="10"/>
<path d="M222.868 120.478C225.503 117.854 229.099 116.315 232.78 115.796C236.462 115.277 240.23 115.729 243.823 116.686" stroke="#FDCC05" stroke-width="0.365894" stroke-miterlimit="10"/>
<path d="M168.773 128.358C169.908 127.056 171.267 125.967 172.785 125.142C176.099 123.456 179.762 122.569 183.48 122.553C185.858 122.662 188.254 123.404 190.083 124.928" stroke="#FDCC05" stroke-width="0.365894" stroke-miterlimit="10"/>
<path d="M154.563 138.723C151.651 122.898 149.936 106.877 149.43 90.7947C149.288 87.6389 149.321 84.4777 149.529 81.3255C150.462 69.6002 155.551 58.5933 163.879 50.2873C172.208 41.9813 183.228 36.9222 194.956 36.0212C195.643 35.9685 196.458 35.9883 196.851 36.5539" stroke="#FDCC05" stroke-width="0.365894" stroke-miterlimit="10"/>
<path d="M244.041 42.7209C247.534 43.0411 250.229 45.8586 252.361 48.6443C261.371 60.4206 266.435 74.7121 270.424 88.9933C271.275 91.884 271.966 94.8192 272.494 97.7858C273.622 104.675 273.193 111.712 272.758 118.679" stroke="#FDCC05" stroke-width="0.365894" stroke-miterlimit="10"/>
<path d="M196.065 36.2371C208.544 35.7677 221.332 35.3297 233.456 38.8455C235.394 39.3902 237.303 40.0339 239.175 40.7738C240.721 41.3999 242.464 42.7415 244.174 42.7183" stroke="#FDCC05" stroke-width="0.365894" stroke-miterlimit="10"/>
<path d="M197.268 185.971C197.437 185.637 197.693 185.356 198.01 185.157C198.328 184.959 198.693 184.851 199.067 184.846C199.441 184.84 199.809 184.938 200.132 185.127C200.455 185.316 200.72 185.59 200.898 185.919L202.301 185.621L203.675 187.455C203.802 186.718 204.714 186.343 205.442 186.516C206.169 186.689 206.74 187.235 207.273 187.76C207.186 187.608 207.158 187.429 207.197 187.258C207.235 187.087 207.336 186.937 207.481 186.837C207.777 186.649 208.118 186.54 208.47 186.523C209.166 186.388 209.88 186.377 210.581 186.489C210.93 186.55 211.258 186.7 211.532 186.925C211.806 187.151 212.017 187.443 212.144 187.775L212.115 186.652C212.926 186.738 213.69 186.31 214.48 186.104C215.269 185.899 216.31 186.048 216.589 186.814L216.521 185.778L220.826 184.784C220.919 184.841 220.99 184.927 221.028 185.028C221.067 185.129 221.072 185.241 221.041 185.345C221.702 184.764 222.509 184.375 223.375 184.218C224.24 184.061 225.132 184.143 225.955 184.455C225.983 184.086 226.31 183.822 226.609 183.605C227.084 183.2 227.65 182.915 228.259 182.774C228.875 182.683 229.596 182.983 229.763 183.583C229.691 183.15 229.757 182.706 229.952 182.314C230.147 181.921 230.46 181.599 230.848 181.395C231.236 181.19 231.678 181.113 232.112 181.174C232.546 181.235 232.95 181.432 233.266 181.735C232.751 181.336 233.097 180.414 233.712 180.197C234.327 179.981 235.001 180.238 235.585 180.529C235.737 180.605 235.914 180.733 235.878 180.899C235.842 181.066 235.504 180.927 235.644 180.83" stroke="#FDCC05" stroke-width="0.109768" stroke-miterlimit="10"/>
<path d="M192.419 175.693C192.301 175.614 191.236 174.707 191.236 174.707C191.121 175.026 191.041 175.357 191 175.693C191.039 175.851 191.276 177.586 191.315 177.704C191.355 177.823 191.708 178.769 191.708 178.769L192.638 180.139L193.405 179.913L194.155 181.096L194.431 181.333H195.259L196.008 180.662L197.034 182.161H197.586C197.586 182.161 199.006 180.82 199.045 180.938C199.084 181.057 199.952 182.674 199.952 182.674C199.952 182.674 199.913 182.871 200.938 182.674C201.671 182.469 202.338 182.074 202.87 181.53L203.265 181.096C203.265 181.096 204.172 182.516 204.33 182.397C204.487 182.279 206.893 181.964 206.893 181.964C207.276 181.796 207.645 181.598 207.997 181.372C208.155 181.214 208.273 181.727 208.471 181.766C208.668 181.806 209.338 182.319 209.457 182.319C209.575 182.319 212.375 181.845 212.493 181.885C212.612 181.924 214.862 181.254 214.862 181.254L215.316 180.583C215.316 180.583 216.161 180.859 216.319 180.899C216.476 180.938 219.198 180.938 219.316 180.938C219.434 180.938 221.761 180.347 221.761 180.347L222.353 179.913L222.594 178.131C222.8 178.407 223.072 178.627 223.385 178.771C223.699 178.914 224.043 178.975 224.387 178.95C225.073 178.891 225.744 178.716 226.371 178.431C226.639 178.344 226.891 178.211 227.114 178.038C227.641 177.578 227.674 176.785 227.667 176.086C228.649 176.845 229.771 177.645 231.004 177.502C231.441 177.446 231.855 177.273 232.203 177.001C232.551 176.73 232.819 176.37 232.98 175.959C233.648 176.173 234.359 176.214 235.047 176.079C235.39 176.008 235.711 175.857 235.985 175.639C236.258 175.421 236.476 175.141 236.621 174.823L237.657 174.952C237.82 174.989 237.991 174.974 238.146 174.909C238.341 174.8 238.405 174.556 238.491 174.349C238.706 173.827 239.147 173.435 239.466 172.969C239.785 172.502 239.97 171.846 239.638 171.389C239.665 171.962 239.829 172.52 240.117 173.016C240.185 173.131 240.303 173.26 240.428 173.212C240.491 173.178 240.541 173.123 240.567 173.056L241.058 172.132C241.228 171.907 241.314 171.63 241.3 171.348C241.286 171.067 241.174 170.799 240.982 170.593L239.84 168.751C239.777 168.65 239.69 168.536 239.571 168.544C239.527 168.553 239.485 168.571 239.449 168.597C239.412 168.624 239.381 168.657 239.358 168.695C239.021 169.122 238.736 169.587 238.51 170.081L237.384 168.247C236.907 168.489 236.495 168.84 236.181 169.273C235.867 169.705 235.66 170.206 235.577 170.734C234.978 170.263 234.756 169.279 234.005 169.149C233.757 169.133 233.51 169.192 233.297 169.319C233.083 169.445 232.913 169.633 232.807 169.858C232.605 170.31 232.447 170.78 232.334 171.262C231.768 170.806 231.17 170.391 230.544 170.022C230.258 169.824 229.926 169.703 229.58 169.669C228.769 169.65 228.222 170.489 227.96 171.257C227.698 172.024 227.496 172.906 226.812 173.343L226.008 171.904C225.935 171.697 225.788 171.524 225.596 171.418C225.404 171.312 225.179 171.281 224.966 171.329C224.504 171.302 224.045 171.4 223.634 171.611C222.66 172.233 222.741 173.968 221.646 174.338C221.812 174.282 220.331 172.858 220.172 172.764C219.522 172.373 218.775 172.173 218.017 172.185C216.554 172.22 214.794 173.006 214.602 174.632C213.882 173.767 212.868 173.018 211.745 173.076C211.405 173.104 211.07 173.175 210.749 173.288C209.808 173.55 208.944 174.033 208.229 174.698C207.875 175.033 207.607 175.448 207.445 175.908C207.284 176.368 207.234 176.859 207.3 177.342C206.916 177.135 206.394 177.009 206.011 176.802C205.596 176.541 205.117 176.398 204.627 176.39L203.264 176.272C203.003 176.216 202.731 176.264 202.506 176.406C202.229 176.641 202.283 177.078 202.39 177.424C202.402 177.462 202.409 177.513 202.374 177.531C202.339 177.549 202.325 177.464 202.359 177.484C201.473 176.679 200.43 176.066 199.295 175.686C198.969 175.569 198.547 175.497 198.324 175.763C198.26 175.868 198.217 175.985 198.198 176.107C198.18 176.229 198.186 176.353 198.217 176.473L198.462 178.483C197.985 177.579 197.393 176.74 196.702 175.987C196.607 175.85 196.481 175.737 196.333 175.659C196.186 175.581 196.021 175.54 195.855 175.54C195.625 176.018 195.58 176.565 195.729 177.075C195.067 176.273 194.291 175.573 193.425 174.997C193.218 174.861 192.946 174.73 192.736 174.863C192.525 174.996 192.706 176.465 192.811 176.918" stroke="#FDCC05" stroke-width="0.146358" stroke-miterlimit="10"/>
<path d="M277.595 142.465C280.687 140.978 284.472 141.537 287.47 143.205C290.469 144.872 292.8 147.515 294.853 150.264C300.953 158.431 305.188 168.257 305.384 178.449C305.58 188.641 301.352 199.144 293.194 205.258C286.113 210.564 276.879 212.163 268.031 212.074" stroke="#FDCC05" stroke-width="0.365894" stroke-miterlimit="10"/>
<path d="M269.034 137.545C269.489 137.542 269.789 138.001 269.999 138.404C270.72 139.783 271.461 141.25 271.368 142.803" stroke="#FDCC05" stroke-width="0.365894" stroke-miterlimit="10"/>
<path d="M271.625 131.728C273.37 134.765 274.32 138.193 274.387 141.695" stroke="#FDCC05" stroke-width="0.365894" stroke-miterlimit="10"/>
<path d="M154.84 138.063C153.607 138.632 152.913 140.025 152.83 141.38C152.747 142.736 153.176 144.068 153.666 145.335C154.581 147.696 155.73 149.961 157.095 152.095C157.6 152.885 158.148 153.688 158.306 154.613" stroke="#FDCC05" stroke-width="0.365894" stroke-miterlimit="10"/>
<path d="M199.957 125.371C200.036 125.448 200.04 125.204 199.937 125.241C199.833 125.279 199.835 125.423 199.855 125.531C200.265 127.942 200.011 130.418 199.121 132.695C198.23 134.973 196.737 136.964 194.8 138.457" stroke="#FDCC05" stroke-width="0.0731788" stroke-miterlimit="10"/>
<path d="M213.912 127.279C215.797 130.837 218.776 133.695 222.409 135.432" stroke="#FDCC05" stroke-width="0.0731788" stroke-miterlimit="10"/>
<path d="M399 338.315C398.586 336.902 398.169 335.49 397.748 334.08C394.325 322.615 390.669 311.223 386.779 299.904C385.145 295 383.068 290.255 380.571 285.729C379.292 283.451 377.867 281.257 376.304 279.163C374.845 277.216 372.786 275.451 371.7 273.317C370.6 271.155 368.28 269.209 366.573 267.495C364.756 265.671 362.861 263.93 360.886 262.274C356.995 259.019 352.844 256.088 348.475 253.511C344.089 250.913 339.464 248.456 334.685 246.661C329.278 244.631 323.567 243.639 317.945 242.404C315.15 241.79 312.194 241.255 309.575 240.079C307.135 238.955 304.802 237.614 302.603 236.071C298.882 233.529 293.552 232.363 289.804 235.497L286.711 343.145L263.982 350.908L284.98 358.605L262.892 433.874L250.795 436.086L230.824 438.187L234.105 395.045L240.4 337.147" stroke="#FDCC05" stroke-width="0.365894" stroke-miterlimit="10"/>
<g filter="url(#filter0_f_528_661)">
<path d="M181.461 351.48L181.495 351.664C182.544 351.018 181.484 351.603 181.495 351.664C188.443 347.025 196.127 343.366 203.444 339.707C199.42 314.461 193.565 289.946 189.175 263.967C186.613 247.136 184.052 231.037 183.686 214.206C183.686 212.01 183.32 209.449 184.002 207.27C183.892 207.593 183.827 207.93 183.811 208.271C186.062 203.048 182.441 198.407 178.951 194.829C171.761 187.541 166.154 178.848 162.478 169.294C160.629 164.424 159.29 159.375 158.482 154.228C158.045 151.453 157.842 148.679 157.12 145.952C156.4 143.233 155.411 140.597 154.584 137.91" stroke="#FDCC05" stroke-width="0.365894" stroke-miterlimit="10"/>
<path d="M268.875 125.382L270.922 122.63C271.672 121.622 272.442 120.594 273.481 119.888C274.521 119.182 275.899 118.846 277.052 119.344C277.529 119.581 277.95 119.916 278.288 120.327C278.626 120.738 278.873 121.217 279.012 121.73C279.284 122.759 279.394 123.824 279.337 124.886C279.291 130.104 278.732 135.305 277.668 140.413" stroke="#FDCC05" stroke-width="0.365894" stroke-miterlimit="10"/>
<path d="M269.416 134.755C269.376 132.703 270.043 130.699 271.303 129.08C272.321 127.782 273.583 126.819 274.733 125.758C275.227 125.312 275.688 124.83 276.112 124.316C276.552 123.779 276.921 123.186 277.209 122.553" stroke="#FDCC05" stroke-width="0.365894" stroke-miterlimit="10"/>
<path d="M275.691 124.837L277.25 129.709C277.408 136.492 277.209 135.545 277.209 135.545" stroke="#FDCC05" stroke-width="0.365894" stroke-miterlimit="10"/>
<path d="M268.721 146.267C269.005 145.625 269.38 145.028 269.833 144.492C270.061 144.225 270.344 144.009 270.661 143.859C270.979 143.709 271.324 143.627 271.676 143.62C272.172 143.637 272.643 143.852 273.137 143.901C273.632 143.949 274.225 143.745 274.345 143.263" stroke="#FDCC05" stroke-width="0.365894" stroke-miterlimit="10"/>
<path d="M277.858 139.962L276.507 145.172C276.346 145.749 276.217 146.335 276.121 146.927C275.908 148.42 276.1 150.027 275.39 151.357" stroke="#FDCC05" stroke-width="0.365894" stroke-miterlimit="10"/>
<path d="M266.839 159.997C266.697 169.216 264.575 178.296 260.618 186.624C260.964 191.156 260.956 195.708 260.594 200.238C260.4 202.957 260.075 205.695 260.425 208.398L260.26 207.796" stroke="#FDCC05" stroke-width="0.365894" stroke-miterlimit="10"/>
<path d="M246.909 117.457L247.805 117.191C246.722 116.572 245.39 116.665 244.147 116.775L234.733 117.613C233.317 117.739 231.899 117.866 230.498 118.109C228.959 118.377 227.378 118.821 226.23 119.882C225.507 120.55 225.006 121.418 224.385 122.182C223.765 122.945 220.985 123.735 221.969 123.74L227.453 123.767C228.61 123.556 233.804 122.399 234.783 122.084C235.761 121.768 246.909 117.457 246.909 117.457Z" stroke="#FDCC05" stroke-width="0.365894" stroke-miterlimit="10"/>
<path d="M168.139 130.708C168.454 130.603 172.977 126.922 174.028 126.291C175.08 125.66 182.231 124.713 184.335 124.818C186.438 124.924 188.962 127.334 191.171 127.759C193.379 128.184 186.438 129.13 186.017 129.235C185.597 129.341 174.239 131.023 173.713 130.708C173.187 130.392 168.139 130.708 168.139 130.708Z" stroke="#FDCC05" stroke-width="0.365894" stroke-miterlimit="10"/>
<path d="M191.68 146.702C191.256 147.598 190.925 148.535 190.693 149.498C190.462 150.468 190.536 151.487 190.905 152.413C191.393 153.518 192.399 154.304 193.43 154.933C193.627 155.053 193.85 155.205 193.867 155.436" stroke="#FDCC05" stroke-width="0.365894" stroke-miterlimit="10"/>
<path d="M226.501 143.249C226.725 143.331 226.912 143.491 227.027 143.701C227.688 144.704 228.047 145.875 228.061 147.075C228.075 148.275 227.743 149.455 227.107 150.472C227.182 150.305 227.302 150.162 227.453 150.059" stroke="#FDCC05" stroke-width="0.365894" stroke-miterlimit="10"/>
<path d="M194.979 153.865C196.941 153.647 199.005 153.444 200.821 154.218C202.089 154.759 203.115 155.729 204.242 156.524C205.652 157.577 207.323 158.225 209.074 158.398C209.948 158.477 210.828 158.363 211.653 158.064C212.478 157.765 213.227 157.288 213.847 156.668C214.497 155.968 214.931 155.097 215.521 154.347C217.55 151.766 221.055 150.97 224.277 150.342" stroke="#FDCC05" stroke-width="0.365894" stroke-miterlimit="10"/>
<path d="M239.072 156.066C240.756 156.92 241.811 158.697 242.278 160.527C242.746 162.356 242.711 164.27 242.754 166.157C242.831 169.535 243.165 172.903 243.752 176.23" stroke="#FDCC05" stroke-width="0.146358" stroke-miterlimit="10"/>
<path d="M187.567 176.883C188.331 176.459 188.58 175.493 189.123 174.808C189.495 174.381 189.936 174.02 190.427 173.74C194.686 171.065 199.622 169.664 204.652 169.705C206.219 169.72 207.786 169.877 209.353 169.828C213.903 169.686 218.24 167.825 222.774 167.421C226.945 167.049 231.135 167.921 235.32 167.779C236.364 167.69 237.415 167.699 238.457 167.808C238.979 167.865 239.484 168.027 239.942 168.283C240.4 168.539 240.803 168.884 241.125 169.299C241.162 169.339 241.189 169.389 241.201 169.443C241.213 169.496 241.211 169.553 241.194 169.605C241.142 169.702 240.941 169.653 240.984 169.551" stroke="#FDCC05" stroke-width="0.365894" stroke-miterlimit="10"/>
<path d="M185.441 173.641C186.485 172.841 186.967 171.521 187.766 170.475C188.916 168.969 190.678 168.082 192.378 167.244C196.426 165.251 200.746 163.205 205.236 163.652C206.503 163.778 207.752 164.103 209.026 164.103C210.879 164.102 212.651 163.416 214.432 162.904C218.646 161.692 223.084 161.431 227.466 161.596C229.766 161.682 232.101 161.893 234.24 162.743C235.528 163.299 236.765 163.968 237.936 164.742C239.438 165.673 241.005 166.67 241.858 168.218" stroke="#FDCC05" stroke-width="0.219536" stroke-miterlimit="10"/>
<path d="M184.13 200.187C188.551 206.832 194.394 212.386 200.185 217.879C201.415 219.113 202.746 220.241 204.165 221.252C206.518 222.828 209.248 223.726 211.94 224.605" stroke="#FDCC05" stroke-width="0.365894" stroke-miterlimit="10"/>
<path d="M211.95 224.502C215.176 224.555 218.4 224.314 221.582 223.784C222.735 223.592 223.882 223.361 225.014 223.069C228.037 222.287 230.927 221.066 233.804 219.851C234.517 219.577 235.201 219.232 235.845 218.821C236.554 218.335 237.143 217.694 237.826 217.171C237.9 217.114 237.999 217.056 238.083 217.098C238.167 217.141 238.179 217.291 238.102 217.237L242.521 212.904C243.83 211.67 245.066 210.361 246.224 208.985C247.115 207.883 247.903 206.704 248.691 205.526L252.97 199.124C254.111 197.418 255.253 195.709 256.219 193.899C257.45 191.593 258.44 189.062 260.369 187.297" stroke="#FDCC05" stroke-width="0.365894" stroke-miterlimit="10"/>
<path d="M188.901 178.282C190.347 180.109 192.116 181.649 193.875 183.177L196.451 185.417C198.057 186.812 199.704 188.233 201.68 189.021L201.293 189.18C207.544 190.366 214.253 190.393 220.436 188.893C222.135 188.48 223.808 187.969 225.48 187.458C226.334 187.241 227.153 186.902 227.911 186.452C228.528 186.043 229.04 185.49 229.66 185.085C230.589 184.477 231.715 184.232 232.663 183.654C233.328 183.216 233.931 182.689 234.453 182.088C237.316 179.021 239.674 175.518 241.44 171.712C241.657 171.243 241.864 170.688 241.624 170.231" stroke="#FDCC05" stroke-width="0.219536" stroke-miterlimit="10"/>
<path d="M188.422 183.056C190.558 185.465 192.367 188.145 194.45 190.601C196.532 193.057 198.951 195.328 201.908 196.601C205.664 198.219 209.915 198.084 213.997 197.825C218.492 197.54 223.005 197.133 227.364 196C229.269 195.505 231.172 194.856 232.764 193.698C233.915 192.807 234.939 191.762 235.807 190.594C236.86 189.327 237.735 187.922 238.406 186.418C238.878 185.179 239.24 183.902 239.489 182.6L241.303 174.405" stroke="#FDCC05" stroke-width="0.365894" stroke-miterlimit="10"/>
<path d="M183.833 162.344L181.207 166.746C180.891 167.223 180.643 167.743 180.472 168.29C180.269 169.258 180.41 170.267 180.871 171.143C181.331 172.009 181.861 172.836 182.455 173.616C183.206 174.698 183.879 175.832 184.471 177.009C184.631 177.327 184.769 177.755 184.513 178.003" stroke="#FDCC05" stroke-width="0.146358" stroke-miterlimit="10"/>
<path d="M232.855 146.83L240.854 153.061C242.337 154.217 243.852 155.407 244.846 157.004C245.953 158.783 246.317 160.909 246.66 162.975" stroke="#FDCC05" stroke-width="0.146358" stroke-miterlimit="10"/>
<path d="M223.281 107.942C224.983 107.24 226.686 106.538 228.421 105.923C230.435 105.208 232.488 104.612 234.572 104.138C235.637 103.873 236.724 103.702 237.82 103.627C240.231 103.507 242.611 104.152 244.916 104.87C246.101 105.194 247.241 105.663 248.311 106.266C250.146 107.391 251.442 109.195 252.687 110.951C251.359 108.261 249.751 105.721 247.888 103.371C247.253 102.517 246.509 101.751 245.675 101.091C244.693 100.365 243.545 99.9076 242.462 99.3434C241.472 98.8275 240.52 98.2138 239.451 97.8911C238.565 97.6511 237.648 97.5415 236.73 97.5658C231.989 97.5576 227.384 99.0197 222.873 100.478C220.372 101.286 217.824 102.122 215.709 103.682C215.48 103.828 215.289 104.027 215.152 104.262C214.915 104.743 215.133 105.312 215.335 105.808C215.846 107.066 216.009 110.239 217.618 110.205C219.327 110.169 221.703 108.593 223.281 107.942Z" stroke="#FDCC05" stroke-width="0.365894" stroke-miterlimit="10"/>
<path d="M163.734 118.209C164.862 116.754 166.689 116.049 168.456 115.532C177.048 113.018 186.191 113.43 195.127 113.97C195.854 114.014 196.848 113.835 196.873 113.107C196.847 112.794 196.714 112.499 196.498 112.271C194.333 109.425 191.899 106.466 188.476 105.428C186.482 104.823 184.344 104.941 182.276 105.197C178.109 105.714 174.027 106.766 170.129 108.327C168.915 108.756 167.78 109.382 166.768 110.179C165.654 111.136 164.886 112.432 164.241 113.751C163.108 116.067 162.027 118.768 161.777 121.353C162.683 121.098 163.146 118.968 163.734 118.209Z" stroke="#FDCC05" stroke-width="0.365894" stroke-miterlimit="10"/>
<path d="M157.544 145.767C159.903 133.709 157.708 121.635 158.074 109.56C158.44 105.535 158.44 101.511 158.805 97.4857C158.805 96.388 159.537 95.2904 159.537 94.1927C159.903 86.8748 162.099 80.2887 165.026 73.7026L166.123 72.6049C167.953 68.946 170.88 66.3847 174.539 64.1894L175.637 63.0917C188.809 55.042 203.445 52.1148 218.446 55.7738C232.35 59.0668 246.62 66.0188 251.377 80.2887C253.206 86.8748 254.304 93.095 257.597 99.3152C258.329 101.145 259.06 103.34 259.06 105.535C258.695 115.049 262.719 123.464 265.281 132.612C266.744 138.832 266.012 145.052 267.419 150.806C267.41 150.483 267.354 150.162 267.254 149.855C267.291 150.175 267.346 150.492 267.419 150.806C267.508 150.206 268.241 146.086 267.389 146.004C266.46 145.915 267.314 150.242 267.419 150.806C267.964 147.354 268.225 143.863 268.199 140.368C268.208 135.173 267.842 130.05 267.842 124.928C267.842 124.196 268.574 123.83 269.671 123.098C273.33 121.269 272.964 116.146 272.897 111.986" stroke="#FDCC05" stroke-width="0.365894" stroke-miterlimit="10"/>
<path d="M290.227 235.896C290.527 233.964 289.064 232.866 287.966 232.135C278.819 226.28 272.233 219.328 267.476 210.181C266.012 207.62 263.085 205.79 260.17 206.557C260.36 206.552 260.55 206.534 260.737 206.504C260.547 206.493 260.356 206.511 260.17 206.557C260.397 206.826 261.469 208.272 261.876 208.003C262.527 207.572 260.465 206.629 260.17 206.557C263.567 209.089 264.757 213.565 265.671 217.487C272.233 242.38 262.353 266.529 254.67 290.312C251.742 299.459 250.279 308.606 249.547 318.12C249.547 319.217 249.181 319.949 248.815 321.047C246.62 325.438 243.693 329.097 241.132 333.487C240.766 334.585 239.302 336.049 240.4 337.146C245.888 342.269 253.206 343.732 259.426 347.757C260.884 348.893 262.405 349.945 263.982 350.907" stroke="#FDCC05" stroke-width="0.365894" stroke-miterlimit="10"/>
<path d="M203.444 339.708L217.462 398.989L221.761 438.557L203.444 438.058L186.14 436.177L154.584 366.177L173.292 353.872L181.495 351.664L174.87 353.872L154.584 350.908V342.988L159.325 232.51C160.267 230.084 163.194 228.339 165.099 226.719C168.92 223.469 173.189 220.396 176.493 216.601C179.12 213.583 180.248 208.881 183.84 206.789" stroke="#FDCC05" stroke-width="0.365894" stroke-miterlimit="10"/>
<path d="M45 349.16C47.1475 336.462 49.2652 323.707 52.7579 311.295C56.1399 299.276 60.8163 287.668 65.8934 276.276C68.3203 270.831 70.6008 265.148 73.8628 260.135C76.9637 255.37 81.2678 251.794 86.1749 248.994C96.364 243.18 107.937 239.603 119.308 236.951C131.011 234.222 142.931 232.572 154.842 231.052C156.31 230.864 157.778 230.679 159.246 230.494" stroke="#FDCC05" stroke-width="0.365894" stroke-miterlimit="10"/>
<path d="M199.528 316.057C205.004 318.774 210.839 320.699 216.857 321.774C220.027 322.34 223.236 322.667 226.443 322.953C233.532 323.587 241.292 323.852 247.061 319.683C247.214 319.719 247.356 319.792 247.474 319.896C247.592 320 247.682 320.133 247.735 320.28C247.789 320.428 247.805 320.587 247.781 320.743C247.757 320.898 247.695 321.046 247.6 321.171" stroke="#FDCC05" stroke-width="0.365894" stroke-miterlimit="10"/>
<path d="M266.064 159.346C266.691 159.782 267.464 159.954 268.217 159.828C268.97 159.702 269.643 159.286 270.094 158.67" stroke="#FDCC05" stroke-width="0.365894" stroke-miterlimit="10"/>
<path d="M277.204 155C277.376 154.463 277.404 153.89 277.287 153.338C277.169 152.786 276.909 152.274 276.534 151.853C273.517 148.201 267.491 152.443 269.713 156.53C271.582 159.967 276.29 157.929 277.204 155Z" stroke="#FDCC05" stroke-width="0.365894" stroke-miterlimit="10"/>
<path d="M161.505 167.047C160.56 166.915 159.671 167.72 159.442 168.646C159.213 169.572 159.507 170.552 159.946 171.399C160.349 172.238 160.971 172.953 161.747 173.468C162.136 173.721 162.579 173.88 163.04 173.933C163.502 173.985 163.969 173.93 164.405 173.77C164.379 173.847 164.329 173.914 164.264 173.961C164.198 174.008 164.119 174.034 164.038 174.035" stroke="#FDCC05" stroke-width="0.365894" stroke-miterlimit="10"/>
<path d="M229.303 119.006C228.543 119.343 228.145 120.23 228.151 121.061C228.208 121.893 228.445 122.704 228.844 123.436C228.889 123.532 228.969 123.645 229.071 123.619C229.174 123.593 229.054 123.393 229.018 123.493" stroke="#FDCC05" stroke-width="0.365894" stroke-miterlimit="10"/>
<path d="M238.428 118.056C238.73 118.292 238.964 118.605 239.105 118.962C239.246 119.318 239.289 119.706 239.23 120.085" stroke="#FDCC05" stroke-width="0.365894" stroke-miterlimit="10"/>
<path d="M186.264 126.061C186.515 126.537 186.637 127.071 186.616 127.609C186.595 128.148 186.432 128.671 186.144 129.126" stroke="#FDCC05" stroke-width="0.365894" stroke-miterlimit="10"/>
<path d="M176.158 126.4C176.042 127.086 176.062 127.787 176.219 128.465C176.375 129.142 176.663 129.782 177.068 130.347" stroke="#FDCC05" stroke-width="0.365894" stroke-miterlimit="10"/>
<path d="M232.749 117.728C231.967 116.331 231.589 114.744 231.66 113.145" stroke="#FDCC05" stroke-width="0.365894" stroke-miterlimit="10"/>
<path d="M236.237 117.511C236.699 117.611 237.063 117.125 237.255 116.693C237.842 115.365 238.084 113.91 237.959 112.464" stroke="#FDCC05" stroke-width="0.365894" stroke-miterlimit="10"/>
<path d="M238.354 117.294C240.058 116.097 241.375 114.427 242.143 112.491" stroke="#FDCC05" stroke-width="0.365894" stroke-miterlimit="10"/>
<path d="M248.37 112.824C247.938 113.84 247.298 114.754 246.492 115.509C245.686 116.263 244.731 116.84 243.688 117.204" stroke="#FDCC05" stroke-width="0.365894" stroke-miterlimit="10"/>
<path d="M252.299 115.188C251.156 116.206 249.749 116.88 248.239 117.133C247.837 117.199 247.28 117.123 247.236 116.718" stroke="#FDCC05" stroke-width="0.365894" stroke-miterlimit="10"/>
<path d="M225.823 120.242C224.844 119.953 223.932 119.471 223.141 118.824" stroke="#FDCC05" stroke-width="0.365894" stroke-miterlimit="10"/>
<path d="M187.384 125.814C187.782 126.213 188.459 125.875 188.872 125.492C189.885 124.551 190.661 123.384 191.135 122.085" stroke="#FDCC05" stroke-width="0.365894" stroke-miterlimit="10"/>
<path d="M185.933 125.311C187.185 124.13 188.101 122.639 188.59 120.989" stroke="#FDCC05" stroke-width="0.365894" stroke-miterlimit="10"/>
<path d="M179.594 125.299C178.641 124.324 177.945 123.127 177.571 121.816" stroke="#FDCC05" stroke-width="0.365894" stroke-miterlimit="10"/>
<path d="M177.545 125.336C175.245 124.614 173.153 123.202 172.291 120.86" stroke="#FDCC05" stroke-width="0.365894" stroke-miterlimit="10"/>
<path d="M170.346 123.098C171.381 124.589 172.921 125.655 174.681 126.099" stroke="#FDCC05" stroke-width="0.365894" stroke-miterlimit="10"/>
<path d="M168.385 122.888C168.154 123.145 168.311 123.552 168.5 123.842C169.035 124.651 169.739 125.333 170.565 125.842C171.391 126.35 172.317 126.673 173.28 126.786" stroke="#FDCC05" stroke-width="0.365894" stroke-miterlimit="10"/>
<path d="M164.317 125.704C165.732 128.017 168.66 128.804 171.222 127.917C170.189 127.78 169.193 127.437 168.294 126.91C167.394 126.383 166.61 125.681 165.985 124.846" stroke="#FDCC05" stroke-width="0.365894" stroke-miterlimit="10"/>
<path d="M163.771 127.72C165.698 128.739 167.848 129.263 170.027 129.245" stroke="#FDCC05" stroke-width="0.365894" stroke-miterlimit="10"/>
<path d="M222.868 120.478C225.503 117.854 229.099 116.315 232.78 115.796C236.462 115.277 240.23 115.729 243.823 116.686" stroke="#FDCC05" stroke-width="0.365894" stroke-miterlimit="10"/>
<path d="M168.773 128.358C169.908 127.056 171.267 125.967 172.785 125.142C176.099 123.456 179.762 122.569 183.48 122.553C185.858 122.662 188.254 123.404 190.083 124.928" stroke="#FDCC05" stroke-width="0.365894" stroke-miterlimit="10"/>
<path d="M154.563 138.723C151.651 122.898 149.936 106.877 149.43 90.7947C149.288 87.6389 149.321 84.4777 149.529 81.3255C150.462 69.6002 155.551 58.5933 163.879 50.2873C172.208 41.9813 183.228 36.9222 194.956 36.0212C195.643 35.9685 196.458 35.9883 196.851 36.5539" stroke="#FDCC05" stroke-width="0.365894" stroke-miterlimit="10"/>
<path d="M244.041 42.7209C247.534 43.0411 250.229 45.8586 252.361 48.6443C261.371 60.4206 266.435 74.7121 270.424 88.9933C271.275 91.884 271.966 94.8192 272.494 97.7858C273.622 104.675 273.193 111.712 272.758 118.679" stroke="#FDCC05" stroke-width="0.365894" stroke-miterlimit="10"/>
<path d="M196.065 36.2371C208.544 35.7677 221.332 35.3297 233.456 38.8455C235.394 39.3902 237.303 40.0339 239.175 40.7738C240.721 41.3999 242.464 42.7415 244.174 42.7183" stroke="#FDCC05" stroke-width="0.365894" stroke-miterlimit="10"/>
<path d="M197.268 185.971C197.437 185.637 197.693 185.356 198.01 185.157C198.328 184.959 198.693 184.851 199.067 184.846C199.441 184.84 199.809 184.938 200.132 185.127C200.455 185.316 200.72 185.59 200.898 185.919L202.301 185.621L203.675 187.455C203.802 186.718 204.714 186.343 205.442 186.516C206.169 186.689 206.74 187.235 207.273 187.76C207.186 187.608 207.158 187.429 207.197 187.258C207.235 187.087 207.336 186.937 207.481 186.837C207.777 186.649 208.118 186.54 208.47 186.523C209.166 186.388 209.88 186.377 210.581 186.489C210.93 186.55 211.258 186.7 211.532 186.925C211.806 187.151 212.017 187.443 212.144 187.775L212.115 186.652C212.926 186.738 213.69 186.31 214.48 186.104C215.269 185.899 216.31 186.048 216.589 186.814L216.521 185.778L220.826 184.784C220.919 184.841 220.99 184.927 221.028 185.028C221.067 185.129 221.072 185.241 221.041 185.345C221.702 184.764 222.509 184.375 223.375 184.218C224.24 184.061 225.132 184.143 225.955 184.455C225.983 184.086 226.31 183.822 226.609 183.605C227.084 183.2 227.65 182.915 228.259 182.774C228.875 182.683 229.596 182.983 229.763 183.583C229.691 183.15 229.757 182.706 229.952 182.314C230.147 181.921 230.46 181.599 230.848 181.395C231.236 181.19 231.678 181.113 232.112 181.174C232.546 181.235 232.95 181.432 233.266 181.735C232.751 181.336 233.097 180.414 233.712 180.197C234.327 179.981 235.001 180.238 235.585 180.529C235.737 180.605 235.914 180.733 235.878 180.899C235.842 181.066 235.504 180.927 235.644 180.83" stroke="#FDCC05" stroke-width="0.109768" stroke-miterlimit="10"/>
<path d="M192.419 175.693C192.301 175.614 191.236 174.707 191.236 174.707C191.121 175.026 191.041 175.357 191 175.693C191.039 175.851 191.276 177.586 191.315 177.704C191.355 177.823 191.708 178.769 191.708 178.769L192.638 180.139L193.405 179.913L194.155 181.096L194.431 181.333H195.259L196.008 180.662L197.034 182.161H197.586C197.586 182.161 199.006 180.82 199.045 180.938C199.084 181.057 199.952 182.674 199.952 182.674C199.952 182.674 199.913 182.871 200.938 182.674C201.671 182.469 202.338 182.074 202.87 181.53L203.265 181.096C203.265 181.096 204.172 182.516 204.33 182.397C204.487 182.279 206.893 181.964 206.893 181.964C207.276 181.796 207.645 181.598 207.997 181.372C208.155 181.214 208.273 181.727 208.471 181.766C208.668 181.806 209.338 182.319 209.457 182.319C209.575 182.319 212.375 181.845 212.493 181.885C212.612 181.924 214.862 181.254 214.862 181.254L215.316 180.583C215.316 180.583 216.161 180.859 216.319 180.899C216.476 180.938 219.198 180.938 219.316 180.938C219.434 180.938 221.761 180.347 221.761 180.347L222.353 179.913L222.594 178.131C222.8 178.407 223.072 178.627 223.385 178.771C223.699 178.914 224.043 178.975 224.387 178.95C225.073 178.891 225.744 178.716 226.371 178.431C226.639 178.344 226.891 178.211 227.114 178.038C227.641 177.578 227.674 176.785 227.667 176.086C228.649 176.845 229.771 177.645 231.004 177.502C231.441 177.446 231.855 177.273 232.203 177.001C232.551 176.73 232.819 176.37 232.98 175.959C233.648 176.173 234.359 176.214 235.047 176.079C235.39 176.008 235.711 175.857 235.985 175.639C236.258 175.421 236.476 175.141 236.621 174.823L237.657 174.952C237.82 174.989 237.991 174.974 238.146 174.909C238.341 174.8 238.405 174.556 238.491 174.349C238.706 173.827 239.147 173.435 239.466 172.969C239.785 172.502 239.97 171.846 239.638 171.389C239.665 171.962 239.829 172.52 240.117 173.016C240.185 173.131 240.303 173.26 240.428 173.212C240.491 173.178 240.541 173.123 240.567 173.056L241.058 172.132C241.228 171.907 241.314 171.63 241.3 171.348C241.286 171.067 241.174 170.799 240.982 170.593L239.84 168.751C239.777 168.65 239.69 168.536 239.571 168.544C239.527 168.553 239.485 168.571 239.449 168.597C239.412 168.624 239.381 168.657 239.358 168.695C239.021 169.122 238.736 169.587 238.51 170.081L237.384 168.247C236.907 168.489 236.495 168.84 236.181 169.273C235.867 169.705 235.66 170.206 235.577 170.734C234.978 170.263 234.756 169.279 234.005 169.149C233.757 169.133 233.51 169.192 233.297 169.319C233.083 169.445 232.913 169.633 232.807 169.858C232.605 170.31 232.447 170.78 232.334 171.262C231.768 170.806 231.17 170.391 230.544 170.022C230.258 169.824 229.926 169.703 229.58 169.669C228.769 169.65 228.222 170.489 227.96 171.257C227.698 172.024 227.496 172.906 226.812 173.343L226.008 171.904C225.935 171.697 225.788 171.524 225.596 171.418C225.404 171.312 225.179 171.281 224.966 171.329C224.504 171.302 224.045 171.4 223.634 171.611C222.66 172.233 222.741 173.968 221.646 174.338C221.812 174.282 220.331 172.858 220.172 172.764C219.522 172.373 218.775 172.173 218.017 172.185C216.554 172.22 214.794 173.006 214.602 174.632C213.882 173.767 212.868 173.018 211.745 173.076C211.405 173.104 211.07 173.175 210.749 173.288C209.808 173.55 208.944 174.033 208.229 174.698C207.875 175.033 207.607 175.448 207.445 175.908C207.284 176.368 207.234 176.859 207.3 177.342C206.916 177.135 206.394 177.009 206.011 176.802C205.596 176.541 205.117 176.398 204.627 176.39L203.264 176.272C203.003 176.216 202.731 176.264 202.506 176.406C202.229 176.641 202.283 177.078 202.39 177.424C202.402 177.462 202.409 177.513 202.374 177.531C202.339 177.549 202.325 177.464 202.359 177.484C201.473 176.679 200.43 176.066 199.295 175.686C198.969 175.569 198.547 175.497 198.324 175.763C198.26 175.868 198.217 175.985 198.198 176.107C198.18 176.229 198.186 176.353 198.217 176.473L198.462 178.483C197.985 177.579 197.393 176.74 196.702 175.987C196.607 175.85 196.481 175.737 196.333 175.659C196.186 175.581 196.021 175.54 195.855 175.54C195.625 176.018 195.58 176.565 195.729 177.075C195.067 176.273 194.291 175.573 193.425 174.997C193.218 174.861 192.946 174.73 192.736 174.863C192.525 174.996 192.706 176.465 192.811 176.918" stroke="#FDCC05" stroke-width="0.146358" stroke-miterlimit="10"/>
<path d="M277.595 142.465C280.687 140.978 284.472 141.537 287.47 143.205C290.469 144.872 292.8 147.515 294.853 150.264C300.953 158.431 305.188 168.257 305.384 178.449C305.58 188.641 301.352 199.144 293.194 205.258C286.113 210.564 276.879 212.163 268.031 212.074" stroke="#FDCC05" stroke-width="0.365894" stroke-miterlimit="10"/>
<path d="M269.034 137.545C269.489 137.542 269.789 138.001 269.999 138.404C270.72 139.783 271.461 141.25 271.368 142.803" stroke="#FDCC05" stroke-width="0.365894" stroke-miterlimit="10"/>
<path d="M271.625 131.728C273.37 134.765 274.32 138.193 274.387 141.695" stroke="#FDCC05" stroke-width="0.365894" stroke-miterlimit="10"/>
<path d="M154.84 138.063C153.607 138.632 152.913 140.025 152.83 141.38C152.747 142.736 153.176 144.068 153.666 145.335C154.581 147.696 155.73 149.961 157.095 152.095C157.6 152.885 158.148 153.688 158.306 154.613" stroke="#FDCC05" stroke-width="0.365894" stroke-miterlimit="10"/>
<path d="M199.957 125.371C200.036 125.448 200.04 125.204 199.937 125.241C199.833 125.279 199.835 125.423 199.855 125.531C200.265 127.942 200.011 130.418 199.121 132.695C198.23 134.973 196.737 136.964 194.8 138.457" stroke="#FDCC05" stroke-width="0.0731788" stroke-miterlimit="10"/>
<path d="M213.912 127.279C215.797 130.837 218.776 133.695 222.409 135.432" stroke="#FDCC05" stroke-width="0.0731788" stroke-miterlimit="10"/>
<path d="M399 338.315C398.586 336.902 398.169 335.49 397.748 334.08C394.325 322.615 390.669 311.223 386.779 299.904C385.145 295 383.068 290.255 380.571 285.729C379.292 283.451 377.867 281.257 376.304 279.163C374.845 277.216 372.786 275.451 371.7 273.317C370.6 271.155 368.28 269.209 366.573 267.495C364.756 265.671 362.861 263.93 360.886 262.274C356.995 259.019 352.844 256.088 348.475 253.511C344.089 250.913 339.464 248.456 334.685 246.661C329.278 244.631 323.567 243.639 317.945 242.404C315.15 241.79 312.194 241.255 309.575 240.079C307.135 238.955 304.802 237.614 302.603 236.071C298.882 233.529 293.552 232.363 289.804 235.497L286.711 343.145L263.982 350.908L284.98 358.605L262.892 433.874L250.795 436.086L230.824 438.187L234.105 395.045L240.4 337.147" stroke="#FDCC05" stroke-width="0.365894" stroke-miterlimit="10"/>
</g>
</g>
<defs>
<filter id="filter0_f_528_661" x="28.8196" y="19.7402" width="386.356" height="435.006" filterUnits="userSpaceOnUse" color-interpolation-filters="sRGB">
<feFlood flood-opacity="0" result="BackgroundImageFix"/>
<feBlend mode="normal" in="SourceGraphic" in2="BackgroundImageFix" result="shape"/>
<feGaussianBlur stdDeviation="8" result="effect1_foregroundBlur_528_661"/>
</filter>
<clipPath id="clip0_528_661">
<rect width="436" height="436" rx="218" fill="white"/>
</clipPath>
</defs>
</svg>
