<svg width="541" height="113" viewBox="0 0 541 113" fill="none" xmlns="http://www.w3.org/2000/svg">
<path d="M71.5948 89H62.5776L53.7776 68.1408H18.1432L9.34318 89H0.325925L30.8542 17.0792H41.0665L71.5948 89ZM50.627 60.6445L35.9604 25.5533L21.2938 60.6445H50.627ZM166.106 82.1114C162.662 87.163 157.524 89.6889 150.693 89.6889C144.493 89.6889 139.442 87.5362 135.538 83.2308C131.749 78.9828 129.855 73.7302 129.855 67.4731C129.855 61.2159 131.749 55.9633 135.538 51.7153C139.442 47.41 144.637 45.2573 151.124 45.2573C157.61 45.2573 162.605 47.8118 166.106 52.9208V45.9461H172.564V89H166.106V82.1114ZM151.554 83.8335C156.204 83.8335 159.878 82.2262 162.576 79.0115C165.159 75.969 166.451 72.1229 166.451 67.4731C166.451 62.8232 165.159 58.9771 162.576 55.9346C159.878 52.7199 156.204 51.1126 151.554 51.1126C146.962 51.1126 143.23 52.7199 140.36 55.9346C137.662 58.9771 136.313 62.8232 136.313 67.4731C136.313 72.1229 137.662 75.969 140.36 79.0115C143.23 82.2262 146.962 83.8335 151.554 83.8335ZM190.193 52.4903C193.063 47.6683 197.426 45.2573 203.281 45.2573C206.152 45.2573 208.792 46.0322 211.203 47.5822C213.672 49.0747 215.595 51.1987 216.972 53.9541C218.924 50.3376 221.967 47.7544 226.1 46.2044C227.765 45.573 229.63 45.2573 231.697 45.2573C233.821 45.2573 235.83 45.6878 237.724 46.5489C239.676 47.3525 241.398 48.5294 242.891 50.0793C246.106 53.5236 247.713 57.829 247.713 62.9955V89H241.255V63.1677C241.255 59.6086 240.25 56.6809 238.241 54.3847C236.232 52.2033 233.677 51.1126 230.577 51.1126C227.305 51.1126 224.579 52.1746 222.397 54.2986C220.101 56.48 218.953 59.465 218.953 63.2538V89H212.495V63.1677C212.495 59.6086 211.49 56.6809 209.481 54.3847C207.472 52.2033 204.917 51.1126 201.817 51.1126C198.545 51.1126 195.819 52.1746 193.637 54.2986C191.341 56.48 190.193 59.465 190.193 63.2538V89H183.735V45.9461H190.193V52.4903ZM283.806 57.4846C283.232 53.007 279.616 50.7682 272.957 50.7682C266.355 50.7682 263.054 52.8347 263.054 56.9679C263.054 58.6901 263.743 60.0104 265.121 60.9289C266.556 61.7899 268.335 62.5075 270.459 63.0816C272.583 63.6556 274.88 64.201 277.348 64.7176C279.874 65.1769 282.199 65.8657 284.323 66.7842C286.447 67.6453 288.198 68.8508 289.575 70.4007C291.011 71.9507 291.728 74.0747 291.728 76.7727C291.728 80.9633 290.149 84.178 286.992 86.4168C283.835 88.5982 279.558 89.6889 274.162 89.6889C268.422 89.6889 263.858 88.2537 260.471 85.3835C257.371 82.8576 255.706 79.5568 255.477 75.4811H262.193C262.595 79.442 264.834 82.1114 268.91 83.4891C270.402 83.9483 271.866 84.178 273.301 84.178C274.794 84.178 276.171 84.0919 277.434 83.9196C278.697 83.7474 279.931 83.4317 281.137 82.9725C283.892 81.8818 285.27 80.0161 285.27 77.3755C285.27 75.5959 284.552 74.2469 283.117 73.3284C281.74 72.3525 279.989 71.5775 277.865 71.0035C275.741 70.372 273.416 69.8267 270.89 69.3674C268.422 68.8508 266.125 68.1619 264.001 67.3008C261.877 66.4398 260.098 65.263 258.663 63.7704C257.285 62.2779 256.596 60.2113 256.596 57.5707C256.596 53.6671 258.003 50.6533 260.815 48.5294C263.686 46.348 267.905 45.2573 273.473 45.2573C278.755 45.2573 282.916 46.5202 285.959 49.046C288.485 51.17 289.949 53.9828 290.35 57.4846H283.806ZM318.716 45.2573C325.146 45.2573 330.369 47.41 334.388 51.7153C338.176 55.8485 340.071 61.1011 340.071 67.4731C340.071 73.845 338.176 79.0976 334.388 83.2308C330.369 87.5362 325.146 89.6889 318.716 89.6889C312.287 89.6889 307.063 87.5362 303.045 83.2308C299.256 79.0976 297.361 73.845 297.361 67.4731C297.361 61.1011 299.256 55.8485 303.045 51.7153C307.063 47.41 312.287 45.2573 318.716 45.2573ZM318.716 83.8335C323.366 83.8335 327.04 82.2262 329.738 79.0115C332.321 75.969 333.613 72.1229 333.613 67.4731C333.613 62.8232 332.321 58.9771 329.738 55.9346C327.04 52.7199 323.366 51.1126 318.716 51.1126C314.066 51.1126 310.392 52.7199 307.694 55.9346C305.111 58.9771 303.819 62.8232 303.819 67.4731C303.819 72.1229 305.111 75.969 307.694 79.0115C310.392 82.2262 314.066 83.8335 318.716 83.8335ZM355.64 43.9913V51.0127C357.26 48.8523 359.241 47.0219 361.581 45.5216C363.922 44.0213 366.592 43.2712 369.593 43.2712C372.593 43.2712 375.174 43.6913 377.334 44.5314C379.495 45.3716 381.385 46.6318 383.005 48.3122C386.726 51.9729 388.586 56.8038 388.586 62.805V89H381.835V62.985C381.835 58.8442 380.665 55.5436 378.324 53.0831C375.984 50.6226 372.953 49.3924 369.233 49.3924C365.452 49.3924 362.241 50.6526 359.601 53.1731C356.96 55.7536 355.64 59.0542 355.64 63.075V89H348.889V43.9913H355.64ZM440.284 48.6474H446.337V89H440.284V48.6474ZM446.579 33.959V41.8682H440.042V33.959H446.579ZM462.888 48.6474V54.9424C464.341 53.0055 466.116 51.3645 468.215 50.0194C470.313 48.6743 472.707 48.0018 475.397 48.0018C478.088 48.0018 480.401 48.3784 482.338 49.1316C484.275 49.8849 485.97 51.0147 487.422 52.5212C490.758 55.8033 492.426 60.1344 492.426 65.5148V89H486.373V65.6762C486.373 61.9638 485.324 59.0046 483.226 56.7986C481.127 54.5927 478.41 53.4897 475.075 53.4897C471.685 53.4897 468.806 54.6196 466.439 56.8793C464.072 59.1929 462.888 62.1521 462.888 65.7569V89H456.835V48.6474H462.888ZM534.022 82.5436C530.794 87.2783 525.978 89.6456 519.576 89.6456C513.765 89.6456 509.03 87.628 505.372 83.5928C501.821 79.6113 500.045 74.6883 500.045 68.8237C500.045 62.9591 501.821 58.0361 505.372 54.0546C509.03 50.0194 513.9 48.0018 519.979 48.0018C526.059 48.0018 530.74 50.396 534.022 55.1845V48.6474H540.075V89H534.022V82.5436ZM520.383 84.1577C524.741 84.1577 528.184 82.6512 530.713 79.6382C533.134 76.7866 534.345 73.1818 534.345 68.8237C534.345 64.4656 533.134 60.8608 530.713 58.0092C528.184 54.9962 524.741 53.4897 520.383 53.4897C516.079 53.4897 512.581 54.9962 509.891 58.0092C507.362 60.8608 506.098 64.4656 506.098 68.8237C506.098 73.1818 507.362 76.7866 509.891 79.6382C512.581 82.6512 516.079 84.1577 520.383 84.1577Z" fill="#FFEFE5"/>
<path d="M423.171 85.7679C424.236 85.7679 425.373 85.5548 426.58 85.1286L428.072 89.0709C426.58 89.7102 424.947 90.0298 423.171 90.0298C421.395 90.0298 419.726 89.7102 418.163 89.0709C416.6 88.4316 415.215 87.5792 414.008 86.5137C412.871 85.3772 411.948 84.0987 411.238 82.678C410.598 81.1864 410.279 79.5881 410.279 77.8834V14.9137H414.541V77.8834C414.541 80.0854 415.357 81.9677 416.991 83.5304C418.696 85.0221 420.756 85.7679 423.171 85.7679Z" fill="#FFEFE5"/>
<path d="M426.58 85.1286L428.573 84.3745L427.836 82.4257L425.871 83.1191L426.58 85.1286ZM428.072 89.0709L428.912 91.0295L430.787 90.2256L430.065 88.3167L428.072 89.0709ZM418.163 89.0709L418.97 87.0986H418.97L418.163 89.0709ZM414.008 86.5137L412.501 88.0205L412.548 88.0676L412.598 88.1116L414.008 86.5137ZM411.238 82.678L409.279 83.5174L409.304 83.575L409.332 83.631L411.238 82.678ZM410.279 14.9137V12.7828H408.148V14.9137H410.279ZM414.541 14.9137H416.671V12.7828H414.541V14.9137ZM416.991 83.5304L415.518 85.0703L415.552 85.103L415.588 85.1341L416.991 83.5304ZM423.171 87.8989C424.521 87.8989 425.899 87.6289 427.29 87.1381L425.871 83.1191C424.847 83.4807 423.952 83.6369 423.171 83.6369V87.8989ZM424.587 85.8827L426.079 89.825L430.065 88.3167L428.573 84.3745L424.587 85.8827ZM427.233 87.1122C426.03 87.6275 424.685 87.8989 423.171 87.8989V92.1608C425.208 92.1608 427.131 91.7928 428.912 91.0295L427.233 87.1122ZM423.171 87.8989C421.657 87.8989 420.263 87.6277 418.97 87.0986L417.356 91.0432C419.188 91.7926 421.133 92.1608 423.171 92.1608V87.8989ZM418.97 87.0986C417.617 86.5451 416.438 85.8162 415.418 84.9159L412.598 88.1116C413.993 89.3423 415.584 90.3181 417.356 91.0432L418.97 87.0986ZM415.515 85.0069C414.538 84.0304 413.75 82.9383 413.144 81.725L409.332 83.631C410.146 85.259 411.204 86.724 412.501 88.0205L415.515 85.0069ZM413.196 81.8386C412.676 80.6255 412.41 79.3144 412.41 77.8834H408.148C408.148 79.8619 408.52 81.7472 409.279 83.5174L413.196 81.8386ZM412.41 77.8834V14.9137H408.148V77.8834H412.41ZM410.279 17.0447H414.541V12.7828H410.279V17.0447ZM412.41 14.9137V77.8834H416.671V14.9137H412.41ZM412.41 77.8834C412.41 80.6842 413.477 83.1177 415.518 85.0703L418.464 81.9905C417.238 80.8177 416.671 79.4865 416.671 77.8834H412.41ZM415.588 85.1341C417.708 86.9893 420.277 87.8989 423.171 87.8989V83.6369C421.235 83.6369 419.684 83.0548 418.394 81.9267L415.588 85.1341Z" fill="#FFEFE5"/>
<path d="M97.3552 43.69C94.3506 43.69 91.5377 44.2974 88.9167 45.512C86.2317 46.7266 83.9302 48.3568 82.0124 50.4025C80.0306 52.4482 78.4643 54.8775 77.3136 57.6904C76.1629 60.5033 75.5876 63.4759 75.5876 66.6084C75.5876 69.8049 76.1629 72.8095 77.3136 75.6224C78.4643 78.3713 80.0306 80.7686 82.0124 82.8143C83.9302 84.86 86.2317 86.4902 88.9167 87.7049C91.5377 88.9195 94.3506 89.5268 97.3552 89.5268C100.36 89.5268 103.205 88.9195 105.89 87.7049C108.511 86.4902 110.812 84.86 112.794 82.8143C114.712 80.7686 116.246 78.3713 117.397 75.6224C118.548 72.8095 119.123 69.8049 119.123 66.6084V21.9224H115.287V53.6629C113.305 50.5943 110.748 48.165 107.616 46.375C104.483 44.585 101.063 43.69 97.3552 43.69ZM97.3552 85.6911C94.862 85.6911 92.5286 85.2116 90.3551 84.2527C88.1815 83.2299 86.2956 81.8554 84.6974 80.1293C83.0352 78.4033 81.7567 76.3895 80.8617 74.0881C79.9027 71.7227 79.4233 69.2295 79.4233 66.6084C79.4233 63.9874 79.9027 61.5261 80.8617 59.2247C81.7567 56.8593 83.0352 54.8136 84.6974 53.0875C86.2956 51.3615 88.1815 50.019 90.3551 49.06C92.5286 48.0372 94.862 47.5257 97.3552 47.5257C99.8485 47.5257 102.182 48.0372 104.355 49.06C106.529 50.019 108.447 51.3615 110.109 53.0875C111.707 54.8136 112.986 56.8593 113.945 59.2247C114.84 61.5261 115.287 63.9874 115.287 66.6084C115.287 69.2295 114.84 71.7227 113.945 74.0881C112.986 76.3895 111.707 78.4033 110.109 80.1293C108.447 81.8554 106.529 83.2299 104.355 84.2527C102.182 85.2116 99.8485 85.6911 97.3552 85.6911Z" fill="#FFEFE5"/>
<path d="M88.9167 45.512L89.3647 46.4788L89.3558 46.4828L88.9167 45.512ZM82.0124 50.4025L82.7897 51.1313L82.7837 51.1376L82.7776 51.1439L82.0124 50.4025ZM77.3136 57.6904L76.3275 57.287L77.3136 57.6904ZM77.3136 75.6224L76.3308 76.0338L76.3275 76.0258L77.3136 75.6224ZM82.0124 82.8143L82.7776 82.073L82.7837 82.0792L82.7897 82.0856L82.0124 82.8143ZM88.9167 87.7049L89.3558 86.7341L89.3647 86.7381L88.9167 87.7049ZM105.89 87.7049L106.338 88.6716L106.329 88.6756L105.89 87.7049ZM112.794 82.8143L113.571 83.5431L113.565 83.5494L113.559 83.5557L112.794 82.8143ZM117.397 75.6224L118.383 76.0258L118.38 76.0338L117.397 75.6224ZM119.123 21.9224V20.8569H120.188V21.9224H119.123ZM115.287 21.9224H114.222V20.8569H115.287V21.9224ZM115.287 53.6629H116.353V57.2766L114.392 54.2409L115.287 53.6629ZM107.616 46.375L108.144 45.4499L107.616 46.375ZM90.3551 84.2527L89.925 85.2275L89.9131 85.2223L89.9014 85.2168L90.3551 84.2527ZM84.6974 80.1293L85.4649 79.3903L85.4721 79.3978L85.4792 79.4054L84.6974 80.1293ZM80.8617 74.0881L81.8491 73.6878L81.8519 73.6948L81.8547 73.7019L80.8617 74.0881ZM80.8617 59.2247L81.8582 59.6017L81.852 59.6182L81.8452 59.6345L80.8617 59.2247ZM84.6974 53.0875L85.4792 53.8114L85.4721 53.8191L85.4649 53.8266L84.6974 53.0875ZM90.3551 49.06L90.8087 50.0241L90.797 50.0296L90.7851 50.0349L90.3551 49.06ZM104.355 49.06L103.925 50.0349L103.913 50.0296L103.902 50.0241L104.355 49.06ZM110.109 53.0875L110.876 52.3485L110.884 52.356L110.891 52.3636L110.109 53.0875ZM113.945 59.2247L114.932 58.8244L114.935 58.8314L114.938 58.8385L113.945 59.2247ZM113.945 74.0881L114.941 74.4651L114.935 74.4816L114.928 74.4979L113.945 74.0881ZM110.109 80.1293L110.891 80.8532L110.884 80.8609L110.876 80.8684L110.109 80.1293ZM104.355 84.2527L104.809 85.2168L104.797 85.2223L104.785 85.2275L104.355 84.2527ZM97.3552 44.7555C94.499 44.7555 91.8397 45.3318 89.3647 46.4787L88.4687 44.5453C91.2358 43.263 94.2022 42.6246 97.3552 42.6246V44.7555ZM89.3558 46.4828C86.7917 47.6427 84.607 49.1928 82.7897 51.1313L81.2351 49.6738C83.2535 47.5208 85.6716 45.8106 88.4775 44.5412L89.3558 46.4828ZM82.7776 51.1439C80.8965 53.0857 79.4026 55.3981 78.2998 58.0938L76.3275 57.287C77.5261 54.3569 79.1646 51.8108 81.2471 49.6612L82.7776 51.1439ZM78.2998 58.0938C77.2031 60.7747 76.653 63.6099 76.653 66.6084H74.5221C74.5221 63.3419 75.1228 60.2318 76.3275 57.287L78.2998 58.0938ZM76.653 66.6084C76.653 69.6738 77.2041 72.5407 78.2998 75.2189L76.3275 76.0258C75.1217 73.0783 74.5221 69.9359 74.5221 66.6084H76.653ZM78.2965 75.2109C79.3983 77.843 80.8926 80.1271 82.7776 82.073L81.2471 83.5557C79.1686 81.4101 77.5304 78.8995 76.3308 76.0338L78.2965 75.2109ZM82.7897 82.0856C84.607 84.0241 86.7917 85.5742 89.3558 86.7341L88.4775 88.6756C85.6716 87.4063 83.2535 85.696 81.2351 83.5431L82.7897 82.0856ZM89.3647 86.7381C91.8397 87.8851 94.499 88.4613 97.3552 88.4613V90.5923C94.2022 90.5923 91.2358 89.9539 88.4687 88.6716L89.3647 86.7381ZM97.3552 88.4613C100.211 88.4613 102.906 87.8851 105.451 86.7341L106.329 88.6756C103.503 89.9539 100.508 90.5923 97.3552 90.5923V88.4613ZM105.442 86.7381C107.946 85.5777 110.139 84.0234 112.029 82.073L113.559 83.5557C111.485 85.6967 109.076 87.4027 106.338 88.6716L105.442 86.7381ZM112.017 82.0856C113.842 80.1382 115.309 77.8501 116.414 75.2109L118.38 76.0338C117.183 78.8925 115.581 81.399 113.571 83.5431L112.017 82.0856ZM116.411 75.2189C117.506 72.5407 118.057 69.6738 118.057 66.6084H120.188C120.188 69.9359 119.589 73.0783 118.383 76.0258L116.411 75.2189ZM118.057 66.6084V21.9224H120.188V66.6084H118.057ZM119.123 22.9878H115.287V20.8569H119.123V22.9878ZM116.353 21.9224V53.6629H114.222V21.9224H116.353ZM114.392 54.2409C112.502 51.3139 110.07 49.0044 107.087 47.3001L108.144 45.4499C111.427 47.3257 114.109 49.8748 116.182 53.0848L114.392 54.2409ZM107.087 47.3001C104.12 45.6048 100.883 44.7555 97.3552 44.7555V42.6246C101.243 42.6246 104.846 43.5653 108.144 45.4499L107.087 47.3001ZM97.3552 86.7566C94.7214 86.7566 92.2407 86.2492 89.925 85.2275L90.7851 83.2779C92.8165 84.1741 95.0026 84.6256 97.3552 84.6256V86.7566ZM89.9014 85.2168C87.6067 84.1369 85.6087 82.6818 83.9156 80.8532L85.4792 79.4054C86.9825 81.029 88.7563 82.3228 90.8087 83.2887L89.9014 85.2168ZM83.9299 80.8684C82.167 79.0376 80.8131 76.903 79.8686 74.4743L81.8547 73.7019C82.7002 75.876 83.9035 77.7689 85.4649 79.3903L83.9299 80.8684ZM79.8742 74.4884C78.8624 71.9924 78.3578 69.3629 78.3578 66.6084H80.4887C80.4887 69.0961 80.9431 71.453 81.8491 73.6878L79.8742 74.4884ZM78.3578 66.6084C78.3578 63.854 78.8624 61.2528 79.8781 58.8149L81.8452 59.6345C80.9431 61.7995 80.4887 64.1207 80.4887 66.6084H78.3578ZM79.8651 58.8476C80.8083 56.3549 82.1622 54.1842 83.9299 52.3485L85.4649 53.8266C83.9083 55.4431 82.705 57.3637 81.8582 59.6017L79.8651 58.8476ZM83.9156 52.3636C85.6137 50.5297 87.6196 49.1023 89.925 48.0852L90.7851 50.0349C88.7433 50.9356 86.9775 52.1932 85.4792 53.8114L83.9156 52.3636ZM89.9014 48.096C92.2223 47.0038 94.7113 46.4603 97.3552 46.4603V48.5912C95.0128 48.5912 92.835 49.0706 90.8087 50.0241L89.9014 48.096ZM97.3552 46.4603C99.9992 46.4603 102.488 47.0038 104.809 48.096L103.902 50.0241C101.876 49.0706 99.6977 48.5912 97.3552 48.5912V46.4603ZM104.785 48.0852C107.087 49.1005 109.119 50.5235 110.876 52.3485L109.342 53.8266C107.775 52.1994 105.971 50.9374 103.925 50.0349L104.785 48.0852ZM110.891 52.3636C112.584 54.192 113.929 56.3498 114.932 58.8244L112.957 59.625C112.043 57.3689 110.831 55.4352 109.327 53.8114L110.891 52.3636ZM114.938 58.8385C115.884 61.2705 116.353 63.8635 116.353 66.6084H114.222C114.222 64.1113 113.796 61.7817 112.952 59.6109L114.938 58.8385ZM116.353 66.6084C116.353 69.3536 115.883 71.9749 114.941 74.4651L112.948 73.711C113.796 71.4705 114.222 69.1054 114.222 66.6084H116.353ZM114.928 74.4979C113.924 76.9081 112.579 79.0297 110.891 80.8532L109.327 79.4054C110.835 77.7768 112.048 75.8709 112.961 73.6783L114.928 74.4979ZM110.876 80.8684C109.124 82.6882 107.1 84.1388 104.809 85.2168L103.902 83.2887C105.958 82.3209 107.77 81.0226 109.342 79.3903L110.876 80.8684ZM104.785 85.2275C102.47 86.2492 99.9891 86.7566 97.3552 86.7566V84.6256C99.7078 84.6256 101.894 84.1741 103.925 83.2779L104.785 85.2275Z" fill="#FFEFE5"/>
<path d="M410.668 76.4859C410.668 83.585 405.13 89.2642 398.39 89.2642C391.649 89.2642 386.111 83.585 386.111 76.4859C386.111 69.3868 391.649 63.7076 398.39 63.7076C405.13 63.7076 410.668 69.3868 410.668 76.4859Z" fill="#FDCC05" stroke="white" stroke-width="2.41809"/>
</svg>
